
<svg preserveAspectRatio="xMidYMid meet" data-bbox="20 23.304 160 153.392" xmlns="http://www.w3.org/2000/svg" width="100%" height="100%" viewBox="20 23.304 160 153.392" data-type="color" role="presentation" aria-hidden="true" aria-labelledby="svgcid-2cglz6qt0pu0"><title id="svgcid-2cglz6qt0pu0"></title>
    <g>
        <path d="M173.392 100c0 42.358-34.338 76.696-76.696 76.696S20 142.358 20 100s34.338-76.696 76.696-76.696S173.392 57.642 173.392 100z" fill="#2d2d2d" data-color="1"></path>
        <path d="M104.574 138.655v22.818h-69.78v-22.818h69.78z" fill="#e9d7a9" data-color="2"></path>
        <path fill="#FFFFFF" d="M104.575 162.745H34.794c-.703 0-1.272-.57-1.272-1.272v-22.818c0-.703.57-1.272 1.272-1.272h69.781c.703 0 1.272.57 1.272 1.272v22.818c0 .702-.57 1.272-1.272 1.272zM36.066 160.2h67.236v-20.273H36.066V160.2z" data-color="3"></path>
        <path d="M104.574 38.527v95.027h-69.78V38.527h69.78z" fill="#e9d7a9" data-color="2"></path>
        <path fill="#FFFFFF" d="M104.575 134.827H34.794c-.703 0-1.272-.57-1.272-1.272V38.527c0-.703.57-1.272 1.272-1.272h69.781c.703 0 1.272.57 1.272 1.272v95.027c0 .703-.57 1.273-1.272 1.273zm-68.509-2.545h67.236V39.8H36.066v92.482z" data-color="3"></path>
        <path d="M104.574 53.002v86.24h-69.78v-86.24h69.78z" fill="#2d2d2d" data-color="1"></path>
        <path fill="#FFFFFF" d="M104.575 140.514H34.794c-.703 0-1.272-.57-1.272-1.272V53.003c0-.703.57-1.272 1.272-1.272h69.781c.703 0 1.272.57 1.272 1.272v86.239c0 .703-.57 1.272-1.272 1.272zm-68.509-2.544h67.236V54.275H36.066v83.695z" data-color="3"></path>
        <path d="M75.76 150.064a6.076 6.076 0 11-12.152 0 6.076 6.076 0 0112.152 0z" fill="#2d2d2d" data-color="1"></path>
        <path fill="#FFFFFF" d="M69.684 157.412c-4.052 0-7.349-3.297-7.349-7.349s3.297-7.349 7.349-7.349 7.349 3.297 7.349 7.349-3.297 7.349-7.349 7.349zm0-12.152a4.81 4.81 0 00-4.804 4.804 4.81 4.81 0 004.804 4.804 4.81 4.81 0 004.804-4.804 4.81 4.81 0 00-4.804-4.804z" data-color="3"></path>
        <path d="M94.046 63.722v64.801H45.323V63.722h48.723z" fill="#2d2d2d" data-color="1"></path>
        <path fill="#FFFFFF" d="M94.045 129.795H45.323c-.703 0-1.272-.57-1.272-1.272V63.722c0-.703.57-1.272 1.272-1.272h48.723c.703 0 1.272.57 1.272 1.272v64.801c0 .702-.57 1.272-1.273 1.272zm-47.45-2.545h46.178V64.994H46.595v62.256z" data-color="3"></path>
        <path fill="#FFFFFF" d="M86.351 74.417H53.017a1.272 1.272 0 010-2.544h33.334a1.272 1.272 0 010 2.544z" data-color="3"></path>
        <path fill="#FFFFFF" d="M86.351 81.563H53.017a1.272 1.272 0 010-2.544h33.334a1.272 1.272 0 010 2.544z" data-color="3"></path>
        <path fill="#2d2d2d" d="M84.219 104.284c0 4.809-2.328 9.071-5.929 11.717a14.432 14.432 0 01-8.613 2.824 14.436 14.436 0 01-8.435-2.71 14.518 14.518 0 01-6.094-11.832c0-8.015 6.514-14.529 14.529-14.529 8.029.002 14.542 6.515 14.542 14.53z" data-color="1"></path>
        <path fill="#FFFFFF" d="M69.678 120.098c-3.311 0-6.484-1.02-9.175-2.948a15.837 15.837 0 01-6.625-12.866c0-8.712 7.088-15.801 15.801-15.801 8.72 0 15.814 7.088 15.814 15.801 0 5.012-2.41 9.775-6.448 12.742a15.682 15.682 0 01-9.367 3.072zm0-29.07c-7.309 0-13.256 5.947-13.256 13.256a13.29 13.29 0 005.56 10.796c4.58 3.282 11.04 3.223 15.554-.103a13.32 13.32 0 005.411-10.693c0-7.309-5.952-13.256-13.269-13.256z" data-color="3"></path>
        <path fill="#e9d7a9" d="M78.291 112.821v3.181a14.432 14.432 0 01-8.613 2.824 14.436 14.436 0 01-8.435-2.71v-3.295a8.533 8.533 0 015.178-7.849 4.56 4.56 0 01-1.272-3.168 4.618 4.618 0 014.618-4.618 4.626 4.626 0 014.618 4.618 4.618 4.618 0 01-1.272 3.168 8.535 8.535 0 015.178 7.849z" data-color="2"></path>
        <path fill="#FFFFFF" d="M69.678 120.098c-3.311 0-6.484-1.02-9.175-2.948a1.27 1.27 0 01-.531-1.034v-3.295a9.793 9.793 0 014.575-8.299 5.829 5.829 0 01-.669-2.718c0-3.248 2.642-5.89 5.891-5.89s5.891 2.642 5.891 5.89c0 .952-.233 1.881-.673 2.716a9.793 9.793 0 014.579 8.301v3.181c0 .404-.192.785-.518 1.024a15.697 15.697 0 01-9.37 3.072zm-7.162-4.655c4.342 2.808 10.218 2.754 14.503-.103v-2.519a7.249 7.249 0 00-4.405-6.679 1.273 1.273 0 01-.428-2.041 3.354 3.354 0 00.927-2.297c0-1.845-1.501-3.345-3.346-3.345s-3.346 1.501-3.346 3.345c0 .854.327 1.667.92 2.29a1.272 1.272 0 01-.421 2.048 7.249 7.249 0 00-4.405 6.679v2.622zm15.775.558h.017-.017z" data-color="3"></path>
        <path fill="#2d2d2d" d="M121.187 47.106H100.48c-12.151 0-22.001 9.85-22.001 22.001v34.782L91.26 91.108h29.927c12.151 0 22.001-9.85 22.001-22.001 0-12.151-9.85-22.001-22.001-22.001z" data-color="1"></path>
        <path fill="#FFFFFF" d="M78.478 105.161a1.273 1.273 0 01-1.272-1.272V69.107c0-12.833 10.441-23.273 23.274-23.273h20.707c12.833 0 23.274 10.44 23.274 23.273S134.02 92.38 121.187 92.38h-29.4l-12.408 12.408a1.272 1.272 0 01-.901.373zm22.002-56.783c-11.43 0-20.729 9.299-20.729 20.729v31.711l10.609-10.61c.239-.238.562-.373.9-.373h29.927c11.43 0 20.729-9.299 20.729-20.729s-9.299-20.729-20.729-20.729H100.48z" data-color="3"></path>
        <path d="M99.833 68.971a3.137 3.137 0 11-6.274 0 3.137 3.137 0 016.274 0z" fill="#2d2d2d" data-color="1"></path>
        <path fill="#FFFFFF" d="M96.696 73.38c-2.431 0-4.41-1.978-4.41-4.41s1.978-4.41 4.41-4.41c2.431 0 4.41 1.978 4.41 4.41s-1.979 4.41-4.41 4.41zm0-6.274c-1.028 0-1.865.837-1.865 1.865s.837 1.865 1.865 1.865 1.865-.837 1.865-1.865-.837-1.865-1.865-1.865z" data-color="3"></path>
        <path d="M113.971 68.971a3.137 3.137 0 11-6.274 0 3.137 3.137 0 016.274 0z" fill="#2d2d2d" data-color="1"></path>
        <path fill="#FFFFFF" d="M110.834 73.38c-2.431 0-4.41-1.978-4.41-4.41s1.978-4.41 4.41-4.41c2.431 0 4.41 1.978 4.41 4.41s-1.979 4.41-4.41 4.41zm0-6.274c-1.028 0-1.865.837-1.865 1.865s.837 1.865 1.865 1.865 1.865-.837 1.865-1.865-.837-1.865-1.865-1.865z" data-color="3"></path>
        <path d="M128.109 68.971a3.137 3.137 0 11-6.274 0 3.137 3.137 0 016.274 0z" fill="#2d2d2d" data-color="1"></path>
        <path fill="#FFFFFF" d="M124.972 73.38c-2.431 0-4.41-1.978-4.41-4.41s1.978-4.41 4.41-4.41 4.41 1.978 4.41 4.41-1.979 4.41-4.41 4.41zm0-6.274c-1.028 0-1.865.837-1.865 1.865s.837 1.865 1.865 1.865 1.865-.837 1.865-1.865-.837-1.865-1.865-1.865z" data-color="3"></path>
        <path fill="#e9d7a9" d="M138.542 77.576h19.484c11.433 0 20.702 9.268 20.702 20.702v32.728l-12.026-12.026h-28.16c-11.433 0-20.702-9.268-20.702-20.702 0-11.434 9.269-20.702 20.702-20.702z" data-color="2"></path>
        <path fill="#FFFFFF" d="M178.728 132.278a1.27 1.27 0 01-.9-.373l-11.653-11.653h-27.633c-12.116 0-21.974-9.857-21.974-21.974s9.858-21.974 21.974-21.974h19.484c12.116 0 21.974 9.858 21.974 21.974v32.728a1.272 1.272 0 01-1.272 1.272zm-40.186-53.43c-10.713 0-19.429 8.716-19.429 19.429s8.716 19.429 19.429 19.429h28.16c.337 0 .661.134.9.373l9.854 9.855V98.278c0-10.713-8.716-19.429-19.429-19.429h-19.485z" data-color="3"></path>
        <path fill="#2d2d2d" d="M156.844 92.003h-.838a2.826 2.826 0 00-2.722 2.084h-1.269c-2.008-.508-3.503-2.298-3.503-4.465V88.59a2.271 2.271 0 00-2.271-2.271 2.282 2.282 0 00-2.271 2.271 9.659 9.659 0 00.769 5.094l-.839.403h-5.049a1.962 1.962 0 000 3.924 1.962 1.962 0 000 3.924 1.961 1.961 0 100 3.924h1.585l.037.011a1.957 1.957 0 00.112 3.913h6.55c1.441 0 2.866-.306 4.18-.897l2.42-1.089a2.82 2.82 0 002.268 1.151h3.67V94.836a2.827 2.827 0 00-2.829-2.833z" data-color="1"></path>
        <path fill="#2d2d2d" d="M144.741 93.684a9.659 9.659 0 01-.769-5.094 2.282 2.282 0 012.271-2.271 2.271 2.271 0 012.271 2.271v1.032a4.643 4.643 0 004.643 4.643h.223" data-color="1"></path>
        <path fill="#FFFFFF" d="M153.38 95.538h-.223a5.922 5.922 0 01-5.915-5.915v-1.032a1 1 0 00-.998-.998c-.541 0-.998.457-.998.998-.148 1.295-.053 2.431.272 3.53a8.5 8.5 0 00.385 1.044 1.272 1.272 0 01-2.322 1.04 10.733 10.733 0 01-.503-1.362 10.835 10.835 0 01-.367-4.405c-.009-1.801 1.58-3.39 3.533-3.39a3.547 3.547 0 013.543 3.543v1.032a3.374 3.374 0 003.371 3.37h.223a1.272 1.272 0 11-.001 2.545z" data-color="3"></path>
        <path fill="#FFFFFF" d="M139.167 99.284h-.313a3.238 3.238 0 01-3.235-3.235 3.238 3.238 0 013.235-3.235h6.624a1.272 1.272 0 010 2.544h-6.624a.69.69 0 000 1.38h.313a1.272 1.272 0 010 2.546z" data-color="3"></path>
        <path fill="#FFFFFF" d="M139.167 103.209h-.313a3.238 3.238 0 01-3.235-3.235c0-1.389 1.312-2.359 2.641-2.854.231-.235.552-.38.907-.38h.959a1.272 1.272 0 010 2.544c-.649 0-1.812.533-1.994.847.032.223.341.532.722.532h.313a1.272 1.272 0 010 2.546z" data-color="3"></path>
        <path fill="#FFFFFF" d="M139.167 107.133h-.313c-1.784 0-3.235-1.451-3.235-3.235s1.451-3.235 3.235-3.235h1.586a1.272 1.272 0 010 2.544h-1.586a.69.69 0 000 1.38h.313a1.272 1.272 0 010 2.546z" data-color="3"></path>
        <path fill="#FFFFFF" d="M147.138 111.058h-6.55a3.238 3.238 0 01-3.235-3.235c0-.207-.018-.406-.034-.589-.054-.629-.122-1.413.455-2.041.368-.401.886-.604 1.542-.604h1.538a1.272 1.272 0 010 2.544h-.99c.018.217.034.449.034.69 0 .381.309.69.69.69h6.55c1.269 0 2.5-.264 3.658-.785l4.494-2.022a1.273 1.273 0 011.044 2.32l-4.494 2.022c-1.488.67-3.07 1.01-4.702 1.01z" data-color="3"></path>
        <path fill="#2d2d2d" d="M159.677 108.95h-4.825a1.677 1.677 0 01-1.677-1.677V93.681c0-.926.751-1.677 1.677-1.677H158c.926 0 1.677.751 1.677 1.677v15.269z" data-color="1"></path>
        <path fill="#FFFFFF" d="M159.677 110.222h-3.67a4.109 4.109 0 01-4.104-4.105V94.836a4.109 4.109 0 014.104-4.105h.838a4.109 4.109 0 014.105 4.105v14.114a1.274 1.274 0 01-1.273 1.272zm-3.671-16.946c-.86 0-1.56.7-1.56 1.56v11.281c0 .86.7 1.56 1.56 1.56h2.398V94.836c0-.86-.7-1.56-1.56-1.56h-.838z" data-color="3"></path>
        <path fill="#FFFFFF" d="M156.425 106.417c-.703 0-1.272-.57-1.272-1.272v-.383a1.272 1.272 0 012.544 0v.383a1.271 1.271 0 01-1.272 1.272z" data-color="3"></path>
    </g>
</svg>
