
<svg preserveAspectRatio="xMidYMid meet" data-bbox="90.533 0.111 331.467 511.881" viewBox="90.533 0.111 331.467 511.881" height="100%" width="100%" xmlns="http://www.w3.org/2000/svg" data-type="shape" role="presentation" aria-hidden="true" fill="#2d2d2d" aria-labelledby="svgcid-owylbv-e4d6dr"><title id="svgcid-owylbv-e4d6dr"></title>
    <g>
        <path d="M214.2 1.1c-7.8 1-17.4 6.1-22.2 11.7-5.5 6.5-47.2 67.6-50.4 74-5.2 10.4-5.6 13.9-5.6 62.3v44.7l-14 11.7c-14.7 12.4-19.9 18.3-24.8 28-7.6 15.1-8 21.2-4.7 62.5 3 37.8 3.1 38.5 10 38.5 2.9 0 4.2-.6 5.7-2.6 2-2.6 2-2.9-.7-36.9-3.1-38.3-2.9-42.5 2.4-53.7 3.9-8.1 8-12.8 19.6-22.5 97.9-82.2 152.8-127.7 156.4-129.6 3.1-1.5 6.2-2.2 10-2.2 19.1.1 29.8 21.5 18.4 36.8-3.7 5-84.9 72.5-88.8 73.9-5.4 1.8-10.4 5.7-32.7 25.3-19.1 16.6-20.8 18.4-20.8 21.4 0 3.9 3.5 7.6 7.2 7.6 3 0 2.8.2 28-21.8 10.3-8.9 20.3-16.9 22.2-17.7 5-2.1 10.7-1.8 15.4.7 2.3 1.3 18.5 14.6 36.1 29.5 35.3 30.1 36.1 31.1 36.1 41.6 0 9.6-4.2 16.7-12.3 20.8l-3.8 2-5.2-4.4c-2.9-2.4-13.2-11.1-23-19.4-9.8-8.3-19.9-16.1-22.5-17.3-9.6-4.6-23.1-3.5-31.8 2.4-1.9 1.2-13 10.7-24.9 21-20.2 17.6-21.5 18.9-21.5 22.2 0 4.2 2.9 7.4 6.9 7.4 3.5 0 3.9-.3 35.2-27.8 6.4-5.6 13.3-10.9 15.3-11.7 4.8-2 10.4-1.9 14.7.3 2 1 18.3 14.3 36.2 29.6 36 30.7 36.7 31.5 36.7 42.3 0 7.4-2.5 12.9-7.9 17.5-7.1 6-17 7.4-25.1 3.4-1.9-.9-12.7-9.5-24-19.1-16.8-14.4-20.9-17.5-23.5-17.5-2.5 0-4.5 1.4-10.8 7.8-8.6 8.7-9.5 11.4-5.2 15.7 3.5 3.6 6.8 3.2 11.9-1.5 2.4-2.2 4.5-4 4.8-4 .2 0 8 6.5 17.3 14.5 10.6 9.1 19.4 15.7 23.5 17.7 5.9 3 7.2 3.3 16 3.3 8.2 0 10.3-.4 15.2-2.7 7.6-3.5 15.3-10.9 19.2-18.3 2.9-5.6 3.1-6.7 3.1-16.5 0-9.9-.2-11-3.3-17.2-2.1-4.4-5.1-8.4-8.8-11.7l-5.5-5.1 5.9-5.5c7.8-7.2 11.5-15 12-25.6.8-16.3-3.2-23.1-24.3-41.1-12.4-10.6-15.5-13.7-15.1-15.3.2-1.1 3.9-19.7 8.1-41.4 7.7-39.2 7.7-39.4 10.8-42 9.6-7.8 16-14.9 19-21 2.9-5.9 3.2-7.5 3.3-16.1l.2-9.5 5.3-2.2c14.2-5.8 25.3-2.8 29.4 8.1 1.4 3.8 1.3 7.3-2.4 50.8-2.6 32.3-3.6 48.2-3 51.2.4 2.5 5.1 13.4 10.3 24.3 14.3 30.2 17.9 43.8 17.9 67.8-.1 21.9-3.2 35-14.4 60.2-3.2 7.4-5.9 14.2-5.9 15.2 0 3.1 3.9 7.1 6.9 7.1 4.8 0 6.7-2.6 13.5-18 11.1-25.2 14.9-41.5 14.9-64.5 0-15.1-1.1-23.9-4.8-38-3-11.2-5.6-17.7-15.2-37.4-4.1-8.6-7.9-16.8-8.3-18.2-.5-1.6.8-21.3 3.1-49 4.2-50.4 4.2-53.3-.5-61.4-3.2-5.4-9.7-11.2-15.3-13.7-9-4-18.9-3.4-32 1.8l-6.4 2.6-5-4.7c-2.7-2.5-7.5-5.8-10.7-7.3-5-2.4-6.9-2.7-15.7-2.7-8.9 0-10.6.3-15.5 2.7-3.4 1.7-17.8 12.9-36 28.2l-30.5 25.5-.3-5.8c-.3-5.8-.2-6.1 6.8-16.7 5.7-8.6 7-11.3 6.5-13.3-.8-3.4-4.1-6.1-7.4-6.1-3.4 0-6 2.7-14.2 15l-6.4 9.5-.3 15.3-.3 15.3-23.2 19.3-23.2 19.4-.3-37.9c-.2-37.2-.2-38.1 2.1-44.7 3-9 48-75 53.5-78.7 11.9-7.8 27.6-3.6 33.7 9 2.3 4.7 2.7 6.5 2.3 11.9-.3 5.8-.9 7.2-6.6 15.8-3.4 5.2-6.2 10.4-6.2 11.6 0 2.9 4.2 7.2 7 7.2 3.9 0 6.1-2 12.1-11.2 6.7-10.3 8.9-16.5 8.9-25.4 0-23.1-20.6-40.6-43.8-37.3zm70.3 191.8c-3 15-5.6 27.5-5.8 27.7-.2.2-5-3.6-10.8-8.4-5.7-4.9-12.1-10-14.1-11.3l-3.7-2.5 19.7-16.6c10.8-9.1 19.8-16.5 19.9-16.4.1.1-2.2 12.5-5.2 27.5z"></path>
        <path d="M320 2c-2.9 2.9-3.2 5.1-2.8 23.3.3 15.6.4 16.8 2.5 18.8 2.7 2.7 7.5 2.9 10.3.4 1.9-1.7 2-3 2-21 0-18.7-.1-19.2-2.3-21.3-2.9-2.7-7.1-2.8-9.7-.2z"></path>
        <path d="M373.3 13c-2.5 1-4.3 3.7-13.6 20.6-3.7 6.7-6.7 13.1-6.7 14.3 0 3 4.3 7.1 7.5 7.1 1.4 0 3.6-1 4.8-2.3C369.1 49 383 22.6 383 19.3c0-4.7-5.2-8.1-9.7-6.3z"></path>
        <path d="M397.4 57.3c-15.5 9.6-18.2 12.3-17 17 .7 3.1 5.8 6.1 8.7 5.2 3.3-1.1 29.3-17.5 31.2-19.7.9-1.1 1.7-3.1 1.7-4.5 0-3.1-4.2-7.3-7.3-7.3-1.3 0-9.1 4.2-17.3 9.3z"></path>
        <path d="M100.5 354.2c-2.6 2-2.7 2.5-2.2 8.2 1.4 14.6 8.5 33.4 17.9 47.6 3 4.7 12.6 17.3 21.1 28l15.6 19.4.3 24.7c.3 22.6.5 24.9 2.2 26.8 2.5 2.7 8.6 2.9 10.9.3 1.5-1.6 1.7-5.2 1.7-29.4v-27.5l-18.2-22.9c-10.1-12.7-19.5-24.8-21-27-7.1-10.9-13.9-28.3-15.4-39.5-.5-3.9-1.5-6.1-3.5-8.1-3.3-3.4-5.7-3.5-9.4-.6z"></path>
        <path d="M360.7 399.2c-.9.7-6.1 11.4-11.7 23.6l-10 22.4v62.7l2.6 2c4.3 3.4 8.6 2.6 10.9-2 1.2-2.3 1.5-8.2 1.5-31.1v-28.4l9.5-21.1c5.2-11.7 9.5-21.8 9.5-22.6 0-.8-.9-2.6-2.1-4.1-2.3-2.9-7.3-3.6-10.2-1.4z"></path>
    </g>
</svg>
