<svg preserveAspectRatio="xMidYMid meet" data-bbox="7.8 8.134 496.2 495.866" viewBox="7.8 8.134 496.2 495.866" height="682.667" width="682.667" xmlns="http://www.w3.org/2000/svg" data-type="shape" role="presentation" aria-hidden="true" fill="#2d2d2d" aria-labelledby="svgcid-6f256nwtfcll"><title id="svgcid-6f256nwtfcll"></title>
    <g>
        <path d="M189 9.5c-19.8 4.4-35.9 15-47.1 30.8-19 27-18.2 63.7 1.9 89.6l4.9 6.3-2 4c-6.8 13.6.6 30.4 15.1 34.4l5.9 1.7 1.7 5.9c2.3 8.2 8.2 14.1 16.4 16.4l5.9 1.7 1.7 5.9c2.3 8.1 8.2 14.1 16.3 16.4l5.8 1.6 1.8 6c3.3 11.2 14.5 18.8 25.8 17.5l4.9-.6v24.8l-72.7.3-72.8.3-6.7 3.2c-9.2 4.3-15.1 10.1-19.5 18.9-3.1 6.4-3.6 8.5-4.1 16.8l-.5 9.4-3.3.6c-6.5 1.3-16.9 7.4-22.6 13.4-18.1 19-18.3 47-.4 66 3.4 3.6 4.6 5.7 3.8 6-.8.2-4.6 2.6-8.7 5.3-13.7 9.2-24 22.7-29.2 38.4-2.5 7.5-2.7 9.5-3.1 30.7L7.8 504H152v-18.9c0-20.8-1.2-29.7-5.4-40.2-5.3-13-15.3-25.1-27.4-33-3.9-2.6-7.8-4.9-8.5-5.2-.7-.2.8-2.5 3.9-5.9 17.9-19 17.7-47-.4-66-5.7-6-16.1-12.1-22.8-13.4l-3.4-.6v-6c0-3.4.5-7.9 1.2-10.2 1.6-5.5 9.9-13.8 15.4-15.4 3.1-.9 22-1.2 73.8-1.2H248v32.8l-3.4.6c-6.7 1.3-17.1 7.4-22.8 13.4-18.1 19-18.3 47-.4 66 3.4 3.6 4.6 5.7 3.8 6-.8.2-4.6 2.6-8.7 5.3-13.7 9.2-24 22.7-29.2 38.4-2.5 7.5-2.7 9.5-3.1 30.7l-.4 22.8H328v-18.9c0-20.8-1.2-29.7-5.4-40.2-5.3-13-15.3-25.1-27.4-33-3.9-2.6-7.8-4.9-8.5-5.2-.7-.2.8-2.5 3.9-5.9 17.9-19 17.7-47-.4-66-5.7-6-16.1-12.1-22.8-13.4l-3.4-.6V288h69.6c51.8 0 70.7.3 73.8 1.2 5.5 1.6 13.8 9.9 15.4 15.4.7 2.3 1.2 6.8 1.2 10.2v6l-3.4.6c-6.7 1.3-17.1 7.4-22.8 13.4-18.1 19-18.3 47-.4 66 3.4 3.6 4.6 5.7 3.8 6-.8.2-4.6 2.6-8.7 5.3-13.7 9.2-24 22.7-29.2 38.4-2.5 7.5-2.7 9.5-3.1 30.8l-.4 22.7H504v-18.9c0-20.8-1.2-29.7-5.4-40.2-5.3-13-15.3-25.1-27.4-33-3.9-2.6-7.8-4.9-8.5-5.2-.7-.2.8-2.5 3.9-5.9 17.9-19 17.7-47-.4-66-5.7-6-16.1-12.1-22.6-13.4l-3.3-.6-.5-9.4c-.5-8.3-1-10.4-4.1-16.8-4.4-8.8-10.3-14.6-19.5-18.9l-6.7-3.2-72.7-.3-72.8-.3v-28.6l4.1 2c13.7 6.8 30.5-.6 34.5-15.1l1.7-5.9 5.7-1.6c8-2.3 14.4-8.7 16.7-16.7l1.6-5.7 5.7-1.6c8-2.3 14.4-8.7 16.7-16.7l1.6-5.7 5.9-1.7c16.9-4.7 23.3-26 11.9-39.6l-2.8-3.4 3.8-5.7c7.7-11.3 11.6-22.9 12.6-37.9 2-31.4-16.9-61.7-46-73.9-25.3-10.5-53.6-7-75.2 9.4-3.3 2.5-6.2 4.5-6.6 4.5-.3 0-3.2-2-6.4-4.6-6.9-5.3-17.6-10.6-26-12.9-8.6-2.3-26.5-2.8-34.5-1zm27.5 16c7.7 1.6 19 6.9 24.5 11.5l3.5 2.9-20.7 20.8c-13.1 13.2-21.3 22.2-22.2 24.5-4.4 10.3 1.5 22.7 12.2 25.9 2.3.7 10.9.9 23.2.7 22.4-.3 22.6-.4 32.5-9.8l6-5.7 9-.6c5-.3 11.4-1.3 14.4-2.2l5.4-1.7 27.9 27.9c25.1 25.2 27.8 28.2 27.8 31.2 0 4.4-4.6 9.1-9.1 9.1-2.7 0-4.8-1.5-13.9-10.5-5.8-5.8-11-10.5-11.5-10.5-1.3 0-10.5 9.2-10.5 10.4 0 .5 4.7 5.8 10.5 11.6 9 9.1 10.5 11.2 10.5 13.9 0 4.4-4.7 9.1-9.1 9.1-2.7 0-4.8-1.5-13.9-10.5-5.8-5.8-11-10.5-11.5-10.5-1.3 0-10.5 9.2-10.5 10.4 0 .5 4.7 5.8 10.5 11.6 9 9.1 10.5 11.2 10.5 13.9 0 2.3-.9 4.2-2.9 6.2s-3.9 2.9-6.2 2.9c-2.7 0-4.8-1.5-13.9-10.5-5.8-5.8-11-10.5-11.5-10.5-1.3 0-10.5 9.2-10.5 10.4 0 .5 4.7 5.8 10.5 11.6 9 9.1 10.5 11.2 10.5 13.9 0 2.3-.9 4.2-2.9 6.2-3.8 3.8-8 3.9-12.2.1-2.7-2.4-2.9-3-2-5.5 4.4-11.5-3.9-26.6-16.7-30.4l-6-1.8-1.6-5.8c-2.3-8.1-8.3-14-16.4-16.3l-5.9-1.7-1.7-5.9c-2.3-8.2-8.2-14.1-16.4-16.4l-5.9-1.7-1.7-5.9c-4-14.5-20.8-21.9-34.5-15.1l-4.2 2.1-3.5-4.6c-11-14.4-14.9-33.2-10.4-50.6 2.9-11.3 7.3-19 16-27.6 15-15.1 34-20.8 54.5-16.5zm105.9.5c11.3 2.9 19 7.3 27.6 16 15 15 20.8 34 16.5 54.5-1.4 6.7-7.5 20.4-9.9 22.4-.9.7-6.5-4.3-19.5-17.3l-18.3-18.3 3.1-2.2c1.7-1.2 3.1-2.8 3.1-3.5 0-.6-2.3-3.4-5-6.1-3.7-3.6-5.4-4.7-6.3-4-12.1 9.1-19.1 11.7-33.7 12.3l-11.5.4-8.2 7.9-8.1 7.9-17.2-.2c-15.3-.3-17.4-.5-18.4-2.1-1-1.5 2.8-5.6 27.9-30.6C271 36.8 274.1 34 281 30.6c13.5-6.6 27.6-8.2 41.4-4.6zM181.1 138.9c4.7 4.8 4.1 8.2-2.9 15.3-7.1 7-10.5 7.6-15.3 2.9-4.7-4.8-4.1-8.2 2.9-15.3 7.1-7 10.5-7.6 15.3-2.9zm24 24c4.7 4.8 4.1 8.2-2.9 15.3-7.1 7-10.5 7.6-15.3 2.9-4.7-4.8-4.1-8.2 2.9-15.3 7.1-7 10.5-7.6 15.3-2.9zm24 24c4.7 4.8 4.1 8.2-2.9 15.3-7.1 7-10.5 7.6-15.3 2.9-4.7-4.8-4.1-8.2 2.9-15.3 7.1-7 10.5-7.6 15.3-2.9zm24 24c4.7 4.8 4.1 8.2-2.9 15.3-7.1 7-10.5 7.6-15.3 2.9-4.7-4.8-4.1-8.2 2.9-15.3 7.1-7 10.5-7.6 15.3-2.9zm-158 129.2c6.7 3.6 9.8 6.8 13.7 14.3 2.2 4.3 2.6 6.4 2.6 13.6.1 7.8-.2 9-3.3 14.8-3.8 7-7 10-14.5 14-4.3 2.2-6.4 2.6-13.6 2.6-7.2 0-9.3-.4-13.6-2.6-7.5-4-10.7-7-14.5-14-3.1-5.8-3.4-7-3.3-14.8 0-10 2.4-16 8.9-22.5 10-10 24.9-12.1 37.6-5.4zm176 0c6.7 3.6 9.8 6.8 13.7 14.3 2.2 4.3 2.6 6.4 2.6 13.6.1 7.8-.2 9-3.3 14.8-3.8 7-7 10-14.5 14-4.3 2.2-6.4 2.6-13.6 2.6-7.2 0-9.3-.4-13.6-2.6-7.5-4-10.7-7-14.5-14-3.1-5.8-3.4-7-3.3-14.8 0-10 2.4-16 8.9-22.5 10-10 24.9-12.1 37.6-5.4zm176 0c6.7 3.6 9.8 6.8 13.7 14.3 2.2 4.3 2.6 6.4 2.6 13.6.1 7.8-.2 9-3.3 14.8-3.8 7-7 10-14.5 14-4.3 2.2-6.4 2.6-13.6 2.6-7.2 0-9.3-.4-13.6-2.6-7.5-4-10.7-7-14.5-14-3.1-5.8-3.4-7-3.3-14.8 0-10 2.4-16 8.9-22.5 10-10 24.9-12.1 37.6-5.4zm-356.5 77c16.2 2.9 32.1 15.1 39.4 30.3 4.6 9.7 6 16.6 6 30.3V488h-16v-32h-16v32H56v-32H40v32H24v-10.3c0-13.1 1.4-20.4 5.4-29.2 10.9-23.3 35.7-36 61.2-31.4zm176 0c16.2 2.9 32.1 15.1 39.4 30.3 4.6 9.7 6 16.6 6 30.3V488h-16v-32h-16v32h-48v-32h-16v32h-16v-10.3c0-13.1 1.4-20.4 5.4-29.2 10.9-23.3 35.7-36 61.2-31.4zm176 0c16.2 2.9 32.1 15.1 39.4 30.3 4.6 9.7 6 16.6 6 30.3V488h-16v-32h-16v32h-48v-32h-16v32h-16v-10.3c0-13.1 1.4-20.4 5.4-29.2 10.9-23.3 35.7-36 61.2-31.4z"></path>
        <path d="M128 312v8h16v-16h-16v8z"></path>
        <path d="M160 312v8h16v-16h-16v8z"></path>
        <path d="M192 312v8h16v-16h-16v8z"></path>
        <path d="M304 312v8h16v-16h-16v8z"></path>
        <path d="M336 312v8h16v-16h-16v8z"></path>
        <path d="M368 312v8h16v-16h-16v8z"></path>
    </g>
</svg>