<svg preserveAspectRatio="xMidYMid meet" data-bbox="33.404 -0.3 445.102 512.239" viewBox="33.404 -0.3 445.102 512.239" height="682.667" width="682.667" xmlns="http://www.w3.org/2000/svg" data-type="shape" role="presentation" aria-hidden="true" fill="#2d2d2d" aria-labelledby="svgcid--qv2kx-7tdrw9"><title id="svgcid--qv2kx-7tdrw9"></title>
    <g>
        <path d="M128.5 1.2c-2.9 1.7-3.8 3.6-5.1 11-1.6 8.8-4.8 15.1-10.7 20.4C107.7 37 99 41 94.1 41c-4.1 0-9 1.9-10.1 4-1.3 2.4-1.3 6.6 0 8.9 1.1 2.2 5 3.8 11.3 4.5 14.7 1.8 26.5 14.2 28.3 29.7.5 4.4 1.3 6.5 3.2 8.4 5.4 5.4 12.5 1.7 13.7-7.1 2.6-19.4 12.5-28.8 33.6-31.9 5.8-.9 8.2-4.8 6.6-10.8-.8-3.1-5.6-5.7-10.5-5.7-7.8 0-19.3-7-24.3-14.8-3.1-4.9-4.3-8.5-5.4-16.6-1.1-7.8-6.4-11.6-12-8.4zm10.1 41.5 6.9 6.8-6.7 6.7-6.8 6.7-6.5-6.6-6.5-6.7 6-5.9c3.3-3.3 6-6.3 6-6.8 0-1.5.5-1.1 7.6 5.8z"></path>
        <path d="M277 3.1c0 1.9.3 5.7.6 8.5l.6 5.1 17.2.6c11 .4 20.7 1.3 27.2 2.6 36.6 7.3 69.7 26.2 94.7 53.8 29.6 32.7 44.7 72.1 44.7 115.9-.1 44.6-14.9 83.6-44.2 116.1-9.2 10.2-19.3 19.1-34.7 30.2-5.6 4.1-12.7 10.2-15.8 13.5-6.3 6.8-16.7 22.2-18.4 27.3l-1.1 3.3H230.4l-2.7-5.6c-7.9-16.1-17.7-27.3-35.1-40.3-23.1-17.2-35.2-29.4-47.5-47.6-17.7-26.3-27.4-55.9-28.9-88l-.7-14-8.3-.3-8.2-.3v6.5c0 17.7 4 41.8 9.9 59.6 12.7 37.9 35.6 68.9 70.1 94.6 14.4 10.7 25.7 22 30.3 30.3l2.8 5.1H190v16h28.8l1.6 6.9c2.4 10.7 2.8 10.1-6.4 10.1h-8v16h17v13.9c0 17.3.5 18.3 10.2 19.1l6.3.5.6 5.5c3.1 29 32.5 49.7 60.2 42.5 12-3.1 22.6-10.3 29.1-19.8 4.3-6.3 8.6-17.3 8.6-22.2 0-5.9.6-6.5 7-6.5 5.1 0 6.1-.3 7.9-2.6 1.9-2.4 2.1-4 2.1-16.5V429h17v-16h-16.2l.7-4.8c.3-2.6 1.1-6.4 1.6-8.5l1-3.7H388v-16h-11c-6 0-11-.3-11-.6 0-1.7 9.7-14.9 14.3-19.5 2.9-2.8 11.3-9.7 18.7-15.2 42.4-31.7 67.7-71.8 77.2-122.5 2.9-15.5 3.1-46.7.4-61.2-2.6-14.3-6.2-27.7-10-37.7-20.8-54.6-64.3-96.1-118.9-113.7-18.1-5.8-34-8.5-54.4-9.3L277-.3v3.4zm64.2 393.4c.3.3.2 2.5-.3 4.8-.4 2.3-1 5.9-1.4 7.9l-.6 3.8H239l-.4-2.3c-.3-1.2-.8-4-1.1-6.2-.4-2.2-.9-5-1.2-6.3l-.5-2.2h52.4c28.9 0 52.7.2 53 .5zm-2.4 41.2.3 8.3H240v-17l49.3.2 49.2.3.3 8.2zm-17.2 29c-1.4 10.5-8.5 20.4-18.2 25.3-4.2 2.1-6.3 2.5-14.4 2.5-8.1 0-10.2-.4-14.2-2.4-9.8-5-16.8-14.7-18.3-25.4l-.7-4.7h66.5l-.7 4.7z"></path>
        <path d="M241.2 42c-2.3.5-6.6 2.2-9.4 3.7-4.6 2.5-6.9 4.7-12.6 12.1-1.5 2-2.1 2.2-4.5 1.3-3.7-1.4-12-1.4-17.1.1-5.6 1.6-13.8 7.1-17.2 11.5-5.5 7.2-7.7 17.2-6 26.9l.7 4.1-5.3 3c-6.9 4-13.7 11.3-17.3 18.8-4 8.4-4.6 20.3-1.6 29.4 1.2 3.5 2.1 6.4 1.9 6.5-.2.2-2.4 1.4-4.9 2.9-5.7 3.3-9.5 7.5-12.6 14.4-4.9 10.6-3.8 21.9 3 31.9 2.9 4.2 10.2 10.4 13.8 11.6.7.2.4 2.4-1 6.5-3.7 10.9-2.3 24 3.5 33.9 3.1 5.3 10.9 12.6 16.3 15.4 4 2 4.2 2.3 3.5 5.3-3.8 17.4 6.3 34.4 23.5 39.4 5.2 1.5 14.3 1.4 18.2-.2 1.2-.4 2.6.8 5.1 4.3 16.8 23.3 53.4 14.8 58.8-13.7 1.6-8.6 1.3-235.9-.3-243.8-3.6-17.2-21.3-28.8-38.5-25.3zm15.6 18.7c1.4 1 3.5 3.2 4.6 4.7 2.1 2.7 2.1 3.3 2.4 122.4.2 82.1 0 120.8-.8 123.4-1.3 4.5-6.8 9.5-11.5 10.4-7.3 1.3-14.7-2.1-18-8.5-1.2-2.5-1.1-3.3 2.1-9.5 2.1-4.3 3.4-8.3 3.4-10.7V289h-15.8l-.6 3.5c-.4 1.9-1.8 4.8-3.3 6.5-11.1 13.3-32.1 3.5-28.9-13.5 1.1-5.9 8.2-12.5 13.6-12.5 1.9 0 2-.6 2-8.5 0-7.6-.2-8.5-1.8-8.5-3.5 0-11.4 2.8-15.4 5.5l-4 2.7-5.6-2.9c-18.4-9.3-18.5-34.2-.2-43.6 14.3-7.4 31.6 1 35 17l1.1 5.3h16.2l-.6-5.6c-.3-3-1.9-8.4-3.6-11.9-10-21.4-34.7-30.1-55.5-19.5-7 3.6-9.6 3.7-14.6.9-7.2-4-10-13.8-6.4-21.5 3.2-6.8 12.6-10.8 17.3-7.5 10.6 7.5 27.4 8.5 40.1 2.4 11.5-5.6 21.1-19 22.6-31.6l.7-5.7H215l-.6 4c-1 6.3-6.2 14-11.6 17.3-3.7 2.3-6.3 3.1-11.5 3.4-6.1.4-7.4.2-12.3-2.4-18.3-9.6-18.2-34.5.2-43.6l5.6-2.9 4 2.7c3.6 2.3 12.6 5.5 16 5.5.9 0 1.2-2.4 1.2-8.5 0-7.9-.1-8.5-2-8.5-5.4 0-12.5-6.6-13.6-12.5-1.6-8.5 4.1-17.7 12.1-19.5 8.4-1.9 17.6 3.5 19.7 11.6l1.2 4.4H239v-3.9c0-2.4-1.3-6.4-3.4-10.6-2.5-5-3.2-7.4-2.6-8.9 1-2.7 5.8-7.2 9-8.5 3.7-1.6 11.7-.7 14.8 1.6z"></path>
        <path d="M324.2 42C311 44.7 300.6 55.4 298 68.9c-1.4 7.4-1.4 234.8 0 242.2 5.4 28.4 41.9 37.1 58.6 13.9 3.2-4.5 3.9-4.9 6.2-4.2 1.5.4 5.9.7 9.7.7 20.4-.1 35.4-19.2 31.2-39.6-.7-3.6-.7-3.7 4.5-6.7 6.9-3.9 13.7-11.2 17.3-18.7 4-8.3 4.6-21.2 1.6-29.9-1.2-3.3-2-6-1.9-6.1.2-.1 2.4-1.3 4.9-2.8 5.7-3.3 9.5-7.5 12.6-14.4 7.2-15.6.9-34.4-14.1-42-1.7-.8-3.2-1.7-3.4-1.8-.2-.2.7-3.1 1.9-6.6 2.9-8.9 2.4-21-1.3-29.1-3.3-7.2-10.7-15.1-17.6-19.1-5-2.8-5.3-3.1-4.6-6.1 3-13.5-2.4-27.1-13.7-34.8-7.9-5.4-16.7-6.9-28-4.6-.9.2-3.4-2-6-5.2-7.7-9.4-20.6-14.2-31.7-12zm12.7 17.6c2.4.9 5 3.1 6.7 5.5l2.7 3.9-3.2 6c-1.8 3.3-3.5 8.2-3.8 11l-.6 5h15.9l1.2-4.4c2.1-7.9 11.3-13.5 19.3-11.7 5.2 1.2 8.5 3.9 11 8.9 2.6 5.2 2.2 12-.8 16.1-2.7 3.6-8.1 7.1-10.9 7.1-2.3 0-2.4.2-2.4 8.5 0 6.1.3 8.5 1.3 8.5 3.3 0 12.3-3.2 15.8-5.5l4-2.6 4.7 2.1c11.9 5.3 17.4 16.9 13.8 29.1-2 7.1-6.3 12.1-13.2 15.5-4.7 2.3-6.3 2.6-11.7 2.2-12.6-1-20.2-8.3-23.1-22.1-.6-2.7-.7-2.7-8.6-2.7h-8v2.7c0 8.6 5.2 19.6 12.4 26.7 12.8 12.7 30.9 15.5 47.5 7.3 7.3-3.6 10-3.6 15.2-.2 11.5 7.5 7.8 27-5.5 29.2-2.5.4-5-.3-9.7-2.6-16.2-7.9-33.4-5.6-46.4 6.1-7.5 6.8-13.4 19.2-13.5 28v2.8h8c8.8 0 7.8.7 9.5-7.4.3-1.3 1.9-4.5 3.7-7.2 11.2-16.5 36.9-12.6 43.3 6.6 4 12.1-1.7 24.7-13.7 30l-4.7 2.1-4-2.6c-3.9-2.7-11.9-5.5-15.3-5.5-1.6 0-1.8.9-1.8 8.5 0 7.9.1 8.5 2 8.5 3.1 0 7.4 2.5 10.3 6 6.5 7.7 3.8 19.8-5.5 24.6-3.9 2-10.7 2-14.6 0-3.9-2-8-7.3-8.8-11.4l-.6-3.2h-16.1l.6 5.1c.4 2.9 2 7.5 3.7 10.5 3.5 6.3 3.1 8.3-2.4 13.2-6 5.3-13.9 5.5-20.4.6-6.6-5.1-6.2 2.6-6.2-128.3 0-81.8.3-119.8 1.1-121.8 3.2-8.6 12.6-12.4 21.8-8.7z"></path>
        <path d="M77.7 84.2c-2 1.6-3.7 6-3.7 9.8 0 5.1-4.1 14.2-8.6 19-5.3 5.7-11.5 8.9-20.2 10.4-3.7.6-7.4 1.6-8.3 2.1-4.4 2.7-4.7 10.3-.6 13 1.2.8 5.3 1.9 9.1 2.5 8.8 1.4 14 4 19.8 10.2 4.9 5.1 8.8 13.5 8.8 18.9 0 7.6 5.7 13.1 11.3 11 3.6-1.4 4.8-3.5 5.7-10 1.8-13.1 9.9-24 20.6-28 3-1.2 6.5-2.1 7.7-2.1 7.4 0 12.7-3.8 12.7-9.1 0-4.8-2.8-6.9-11.2-8.4-16.1-2.8-27.5-13.4-29.3-27.3C90.5 88.5 90 87 88 85c-2.3-2.3-7.7-2.7-10.3-.8zm11.5 41.3 6.7 6.5-6.7 6.8-6.6 6.7-6.8-6.8-6.8-6.9 2.8-2.2c1.5-1.1 4.5-4 6.6-6.3 2.2-2.4 4-4.3 4-4.3.1 0 3.2 2.9 6.8 6.5z"></path>
    </g>
</svg>