<svg preserveAspectRatio="xMidYMid meet" data-bbox="25.5 20.349 149 160" viewBox="25.5 20.349 149 160" height="200" width="200" xmlns="http://www.w3.org/2000/svg" data-type="color" role="presentation" aria-hidden="true" aria-labelledby="svgcid-ab2zbhq8ls24"><defs><style>#comp-ks7r0c1m__item2 svg [data-color="1"] {fill: #2D2D2D;}</style></defs><title id="svgcid-ab2zbhq8ls24"></title>
    <g>
        <path d="M25.5 20.349l.001 160 71.931-5.161-.001-149.677L25.5 20.349zm60.374 35.694l.97.74-.073.25-.936.077.039-1.067zm-7.952-6.55c.162.491.497.925.775 1.422l.982.61-.099.215c-.506.159-.994.17-1.411-.277-.576-.618-1.196-1.203-1.699-1.877-.261-.349-.312-.857-.473-1.338 1.437.003 1.556.125 1.925 1.245zm-9.61 12.547c.576.212.673.553.277 1.012-.716.83-1.276.752-1.78-.236-.081-.16-.223-.288-.379-.484l1.197-.583c.196.084.436.199.685.291zm-1.046-22.979c-.48.444-.732 1.084-1.547.608.449-.395.655-1.085 1.547-.608zM60.64 50.452a3.439 3.439 0 0 1 3.431 3.446c0 1.903-1.536 3.446-3.431 3.446s-3.431-1.543-3.431-3.446a3.439 3.439 0 0 1 3.431-3.446zM27.433 99.304v.01l.768-.026c.105.109.141.129.14.148-.019.408-.023.819-.086 1.221-.008.048-.478.101-.496.055-.141-.348-.229-.719-.32-1.086-.024-.099-.007-.208-.007-.313h-.01l.011-.009zm-1.515 39.329l-.026-.785.24-.015.026.797-.24.003zm2.314 26.206l-1.375-.541c.096-.252.125-.663.306-.748.705-.329 1.216.089 1.733.661l-.664.628zm3.183-116.986c-.341.178-1.119-.578-.974-.948.114-.288.517-.462.791-.686.505.224 1.173-.02 1.078.657-.052.371-.517.78-.895.977zm.945 30.883l-.002-.25a199 199 0 0 0 .772-.026l.002.301-.772-.025zm3.619 98.004c-.147-.015-.41-.433-.37-.49.242-.349.506-.743.863-.935.368-.197.538.173.646.516.07.222.228.416.494.88-.648.022-1.146.079-1.633.029zm12.714-12.041c-.168.055-.493-.067-.607-.22-.203-.272-.299-.625-.464-1 .61-.235 1.275.076 1.339.652.021.189-.126.521-.268.568zm14.041-16.493c-.116-.01-.198-.406-.295-.625.25-.099.542-.331.742-.268.382.121.712.409 1.063.628l.005.216c-.506.027-1.015.094-1.515.049zm5.8 28.233l-.745-1.532c.379-.165.856-.56 1.16-.455.324.112.485.699.798 1.212l-1.213.775zm7.741-23.022c-.075-.45-.21-.885.356-.932.175-.014.533.316.539.497.022.596-.44.461-.895.435zm11.094-21.511c-1.114-.545-2.165-1.191-3.031-2.048-3.181-3.141-9.913-3.144-13.094.003-4.761 4.707-14.115 4.709-18.876-.003-3.181-3.141-9.913-3.144-13.094.003-.765.756-1.676 1.346-2.64 1.859v-5.01c4.826-4.491 13.94-4.442 18.625.196 3.192 3.141 9.919 3.147 13.089 0 4.771-4.712 14.12-4.712 18.881 0 .042.041.098.068.14.107v4.893zM73.138 116.69c.003-.073.095-.158.169-.204.024-.015.156.069.163.118.011.08-.04.169-.092.344-.128-.131-.242-.196-.24-.258zm14.231-2.203c-1.114-.545-2.165-1.191-3.031-2.048-3.181-3.141-9.913-3.144-13.094.003-4.761 4.707-14.115 4.709-18.876-.003-3.181-3.141-9.913-3.144-13.094.003-.765.756-1.676 1.346-2.64 1.859v-5.01c4.826-4.491 13.94-4.442 18.625.196 3.192 3.141 9.919 3.147 13.089 0 4.771-4.712 14.12-4.712 18.881 0 .042.041.098.068.14.107v4.893zm0-18.804c-1.072-.536-2.085-1.165-2.924-1.993-3.175-3.141-9.908-3.144-13.094-.003-4.755 4.701-14.11 4.709-18.876.003-3.175-3.141-9.908-3.144-13.094-.003-.792.783-1.743 1.387-2.747 1.91v-4.976c2.377-2.269 5.831-3.419 9.292-3.419 3.53 0 7.061 1.177 9.441 3.533 3.181 3.141 9.913 3.139 13.094-.003 4.761-4.712 14.115-4.704 18.876.003.01.01.023.016.033.025v4.923zM65.013 79.267l1.384-.046c-.574.605-.805.625-1.384.046zm1.9 6.164c.345-.009.732.075.648.515-.045.237-.357.423-.658.751-.32-.311-.659-.486-.699-.713-.086-.491.348-.544.709-.553zm20.456-8.092c-1.322-.573-2.556-1.306-3.558-2.295-3.17-3.139-9.903-3.147-13.094-.003-4.761 4.712-14.115 4.712-18.876 0-3.192-3.141-9.913-3.147-13.094 0a10.992 10.992 0 0 1-2.113 1.609v-5.17c1.449-1.186 3.219-1.981 5.102-2.448-.342-.233-.741-.468-.8-.766-.124-.63.529-.517.935-.581 1.084-.171 2.079-.076 2.762.921.221-.01.437-.052.659-.052 3.53 0 7.06 1.179 9.44 3.535 3.181 3.141 9.914 3.144 13.094-.003 4.761-4.71 14.115-4.707 18.876.003.197.194.444.34.667.51v4.74zm8.975.863l-.015-.315.782-.026.019.278-.786.063z" fill="#2D2D2D" data-color="1"></path>
        <path d="M174.499 20.35l-71.931 5.161.001 149.677 71.931 5.161-.001-159.999zm-17.982 24.946c.103.009.214.08.288.157.02.021-.069.218-.125.227-.098.016-.209-.051-.387-.105.112-.146.174-.283.224-.279zm-13.29 8.614l-.035.92a48.66 48.66 0 0 1-.235.141l-.597-.938.867-.123zm-6.055-18.852c.48.005.975.612.982 1.206.009.759-.526 1.305-1.268 1.295-.529-.008-1.156-.5-1.18-.928-.023-.398 1.076-1.577 1.466-1.573zm-.351 15.394a3.439 3.439 0 0 1 3.431 3.446c0 .232-.088.434-.131.653.391-.163.89-.131 1.616.057-.107.288-.162.697-.285.719-.301.052-.633-.075-1.058-.147l-.487.171c-.548 1.17-1.713 1.993-3.086 1.993a3.438 3.438 0 0 1-3.43-3.446 3.438 3.438 0 0 1 3.43-3.446zm-33.383 50.254c-.163-.109-.173-.45-.25-.674 2.301-1.035 2.574-.961 3.862 1.023-1.276.426-2.486.403-3.612-.349zm6.711-42.494c-.404-.475-.814-.857-1.09-1.321-.157-.263-.247-.777-.098-.968.266-.343.649-.779 1.23-.393.98.652.944 1.964-.042 2.682zm13.998 105.605l-1.222.175-.231-.226c.115-.258.283-.749.336-.737.399.093.775.284 1.158.445l-.041.343zm1.882-18.262l-1.222.176-.231-.226c.115-.258.283-.749.336-.737.399.092.775.284 1.158.444l-.041.343zm1.373 11.569c-.431-.511-.464-.793-.199-1.036l.361.103-.162.933zm4.605 3.36l-.745-1.532c.379-.165.856-.56 1.161-.455.324.112.484.699.798 1.212l-1.214.775zm11.183-21.545c-.449.075-.884.209-.909-.369-.008-.176.321-.523.496-.523.574.001.461.443.413.892zm9.306 12.091l-1.222.175-.231-.226c.115-.258.283-.749.336-.737.399.093.775.284 1.158.445l-.041.343zm5.383-4.721c-.104-.008-.202-.092-.302-.146.044-.084.078-.228.135-.238.099-.017.211.049.391.102-.112.148-.173.286-.224.282zm6.558-14.403c-1.114-.545-2.165-1.191-3.031-2.048-3.181-3.141-9.913-3.144-13.094.003-4.761 4.707-14.115 4.709-18.876-.003-3.181-3.141-9.913-3.144-13.094.003-.765.756-1.676 1.346-2.64 1.859v-5.01c4.826-4.491 13.94-4.442 18.625.196 3.192 3.141 9.919 3.147 13.089 0 4.771-4.712 14.12-4.712 18.881 0 .042.041.098.068.14.107v4.893zm0-17.419c-1.114-.545-2.165-1.191-3.031-2.048-3.181-3.141-9.913-3.144-13.094.003-4.761 4.707-14.115 4.709-18.876-.003-3.181-3.141-9.913-3.144-13.094.003-.765.756-1.676 1.346-2.64 1.859v-5.01c4.826-4.491 13.94-4.442 18.625.196 3.192 3.141 9.919 3.147 13.089 0 4.771-4.712 14.12-4.712 18.881 0 .042.041.098.068.14.107v4.893zm-32.077-13.839c1.642-.54 4.236.273 5.141 1.634-.872.044-1.637.088-2.402.12-.877.038-1.62-.332-2.264-.87-.231-.193-.312-.567-.475-.884zm32.077-4.965c-1.072-.536-2.085-1.165-2.924-1.993-3.175-3.141-9.908-3.144-13.094-.003-4.755 4.701-14.11 4.709-18.876.003-3.175-3.141-9.908-3.144-13.094-.003-.792.783-1.743 1.387-2.747 1.91v-4.976c2.377-2.269 5.831-3.419 9.292-3.419 1.251 0 2.482.201 3.682.497.063-.161.144-.348.276-.403.612-.256 1.003-.039 1.578.917l-.111.002c1.509.587 2.896 1.411 4.016 2.519 3.181 3.141 9.913 3.139 13.094-.003 4.761-4.712 14.115-4.704 18.876.003.01.01.023.016.033.025v4.924zm-48.421-14.347c.713-.385 1.007.18 1.433.595l-.722.714c-.388-.381-.959-.602-.711-1.309zm15.736 3.37c.563-.462 1.133-.321 1.659-.19.127.032.162.436.24.669-.24.063-.514.233-.712.168-.384-.126-.725-.385-1.187-.647zm4.903 2.892c.397-.261.847-.444 1.285-.636.142-.062.358-.109.477-.045.803.429 1.883.241 2.519 1.129-.729 1.133-1.696 1.872-3.068 1.8-.533-.028-1.088-.271-1.566-.537-.477-.266-.263-1.306.353-1.711zm27.782-10.259c-1.322-.573-2.556-1.306-3.558-2.295-3.17-3.139-9.903-3.147-13.094-.003-4.761 4.712-14.115 4.712-18.876 0-3.192-3.141-9.913-3.147-13.094 0a10.992 10.992 0 0 1-2.113 1.609v-5.17c2.339-1.915 5.474-2.927 8.658-2.927 3.53 0 7.06 1.179 9.44 3.535 3.181 3.141 9.914 3.144 13.094-.003 3.583-3.545 9.766-4.415 14.636-2.623-.051-.136-.116-.28-.161-.417-.14-.422.069-.568.754-.577.373.831.556 1.253.566 1.549 1.134.548 2.203 1.202 3.081 2.072.197.194.444.34.667.51v4.74zm1.572 66.304l-.001-.017-.929-.265.483-1.248.369.077.076 1.436.013.004-.011.013zm1.175-19.121c-.192.008-.392-.209-.749-.427.318-.244.511-.496.636-.465.204.05.364.284.543.44-.143.162-.281.447-.43.452zm3.123-101.883c-.385.121-1.685-.217-1.823-.496-.083-.168-.106-.508-.007-.592a.801.801 0 0 1 .656-.128c.37.115.707.336 1.191.58l-.017.636z" fill="#2D2D2D" data-color="1"></path>
    </g>
</svg>