<svg preserveAspectRatio="xMidYMid meet" data-bbox="0.5 0.199 511.386 511.801" viewBox="0.5 0.199 511.386 511.801" height="682.667" width="682.667" xmlns="http://www.w3.org/2000/svg" data-type="shape" role="presentation" aria-hidden="true" fill="#2d2d2d" aria-labelledby="svgcid--a7tmv5-kffqcb"><title id="svgcid--a7tmv5-kffqcb"></title>
    <g>
        <path d="M237 .7c-37.9 3.6-66.1 11.6-98 27.8-37.8 19.3-71.7 49.7-96.5 86.5-16.2 24.2-31.2 59.8-36.9 88-4.2 21-5.1 29.5-5.1 52.5 0 25.9 1.7 40.2 7.5 63 4.6 18.2 9.3 31.3 16.5 46.3 4.7 9.8 5.9 11.4 8.9 12.7 4.6 2 9 1 12.1-2.7 3.6-4.3 3.2-7.9-2.6-20.9-25.4-56.4-28.4-115.3-8.8-173.4 11.7-34.6 29.7-63.4 56.4-90 28.1-28.1 57.1-45.9 94.5-58 23.4-7.5 45-10.8 71-10.8 9.6 0 21.9.5 27.2 1.2C375.6 34.6 451 96.8 479.4 184.7c7.7 23.9 10.9 44.9 10.9 71.3 0 35-6.6 65.3-21.3 98.3-5.7 12.6-6.1 16.2-2.5 20.5 3.2 3.9 7.2 4.8 11.9 2.8 3.3-1.4 4.3-2.8 9.1-12.8 33.2-69.9 32.5-152.2-2.1-221.7-12.4-25-26.3-44.7-45.8-64.8-21.6-22.4-42.8-37.8-71.1-51.8C338.9 11.9 311.3 4 278.5 1 268.3.1 245.2-.1 237 .7z"></path>
        <path d="M243 120.6c-1.4.2-5.6.9-9.5 1.5-10.6 1.7-24.9 6.5-35.9 12.2-16.2 8.3-33.8 22.6-35.1 28.6-1.5 6.8 5.8 14.1 12.6 12.6 1.6-.4 5.3-2.8 8.2-5.4 21.7-19.5 44.1-28.3 72.2-28.4 28.4-.1 51.4 8.8 73.2 28.4 2.9 2.6 6.6 5 8.2 5.4 6.9 1.5 14.1-5.8 12.6-12.7-1.4-6-18.8-20.2-35.1-28.5-18.7-9.5-33-13.1-54.4-13.8-8-.2-15.6-.2-17 .1z"></path>
        <path d="M243.8 175c-14.4 2.6-28.8 9.3-37.3 17.4-7.6 7.2-8.4 12.4-2.9 17.9 2 2.1 3.7 2.7 6.9 2.7 3.5 0 5.1-.8 10.3-4.9 3.3-2.7 8.6-6.1 11.7-7.6 19.5-9.2 41.4-6.3 58.7 7.6 5.2 4.1 6.8 4.9 10.3 4.9 7.6 0 12.6-8.1 9.1-14.8-3.7-7.1-19.8-17.3-33.8-21.2-8.2-2.3-25.5-3.4-33-2z"></path>
        <path d="M249.5 233.4c-10.1 4.4-12.5 17.8-4.6 25.7 6.5 6.5 15.7 6.5 22.2 0 12.4-12.4-1.5-32.7-17.6-25.7z"></path>
        <path d="M90.4 385.9c-1.7 1.1-3.6 3.4-4.3 5.2-.8 2.2-1.1 19.6-1.1 57.1 0 59.1 0 59.2 5.9 62.2 3.8 2 6.4 2 10.1.1 5.4-2.8 5.5-3.3 6-40.9l.5-35 22.3 37.2c22.8 38 24.4 40.2 30.2 40.2 3.7 0 8.1-3 9.6-6.5 1.1-2.8 1.4-13 1.4-57.5 0-59.3 0-59.4-5.9-62.4-3.8-2-6.4-2-10.1-.1-5.4 2.8-5.5 3.3-6 40.9l-.5 35-22.3-37.2c-22.9-38.3-24.4-40.2-30.4-40.2-1.3 0-3.7.9-5.4 1.9z"></path>
        <path d="M236.5 385.4c-6.5 2-9.8 4.2-14.2 8.9-9.1 9.8-9.3 11.5-9.3 64.3 0 47.7.1 48.9 5.9 51.8 3.8 2 6.4 2 10.2 0 5-2.5 5.9-6.3 5.9-24.9V469h28.4c26.9 0 28.5-.1 30.9-2 3.8-3 5.2-8 3.3-12.3-2.6-6.4-4.2-6.7-35.1-6.7H235v-17.8c0-26-1-25.2 33.3-25.2 22 0 23.6-.1 26-2 3.8-3 5.2-8 3.3-12.3-2.6-6.3-4.4-6.7-32.3-6.6-17.1 0-26 .4-28.8 1.3z"></path>
        <path d="M364.5 385.4c-6.5 2-9.8 4.2-14.2 8.9-9 9.8-9.5 13-9.1 57.2.3 30.8.6 35.6 2.2 39.8 2.5 6.6 10.3 14.9 16.8 17.8 5.1 2.3 6.4 2.4 31.5 2.7 29.5.4 31.2 0 33.9-6.5 1.9-4.3.5-9.3-3.3-12.3-2.4-1.9-4-2-26-2-25.1 0-28.5-.5-31.7-5.1-1.4-2.1-1.6-6.6-1.6-37.9 0-31.3.2-35.8 1.6-37.9 3.2-4.6 6.6-5.1 31.7-5.1 22 0 23.6-.1 26-2 3.8-3 5.2-8 3.3-12.3-2.6-6.3-4.4-6.7-32.3-6.6-17.1 0-26 .4-28.8 1.3z"></path>
    </g>
</svg>