<svg width="50" height="50" viewBox="0 0 50 50" fill="none" xmlns="http://www.w3.org/2000/svg">
<path d="M24.9978 7.01755C24.0195 9.31514 23.0412 11.6127 23.056 13.851C23.0708 14.7404 23.2339 15.6002 23.4859 16.5192C23.3701 16.2868 23.2363 16.0637 23.0856 15.8522C21.8405 14.1179 19.3798 12.6355 16.9044 11.1532C16.9044 12.3391 16.9044 13.5101 17.1712 14.6515L26.5394 24.0198V21.0848C28.7629 19.7507 30.8678 18.3869 31.9796 16.8305C33.2099 15.111 33.2099 13.1247 33.2099 11.1532C30.7344 12.6355 28.2738 14.1179 27.0286 15.8522C26.8804 16.0597 26.7618 16.2672 26.6432 16.4748C26.91 15.5409 27.0731 14.5922 27.0583 13.6583C27.0434 11.42 26.0206 9.21138 24.9978 7.01755M12.1313 13.3767L10.2339 15.2593L17.1119 22.1372C17.2749 23.0118 17.5714 23.8271 18.1347 24.6127C19.2464 26.1691 21.3513 27.5329 23.5748 28.867V32.2467L23.0856 31.4165C21.8405 29.6822 19.3798 28.1999 16.9044 26.7176C16.9044 28.6891 16.9044 30.6754 18.1347 32.3949C19.2464 33.9513 21.3513 35.3151 23.5748 36.6491V39.3173H26.5394V36.6491C27.6364 35.9969 28.6888 35.3299 29.6079 34.6332L35.0331 40.0585L36.9157 38.1611C28.0218 29.282 20.7584 22.0038 12.1313 13.3767ZM33.2099 18.9354C30.7344 20.4177 28.2738 21.9 27.0286 23.6344L26.7173 24.1828L29.5041 26.9548C30.4972 26.2136 31.3866 25.4428 31.9796 24.6127C33.2099 22.8932 33.2099 20.9069 33.2099 18.9354ZM33.2099 26.7176C32.365 27.2216 31.5497 27.7256 30.7641 28.2444L32.8986 30.3789C33.2099 29.1931 33.2099 27.9479 33.2099 26.7176V26.7176Z" fill="white"/>
</svg>
