<svg width="50" height="50" viewBox="0 0 50 50" fill="none" xmlns="http://www.w3.org/2000/svg">
<path d="M22.611 16.2684L20.0173 14.7816C20.8763 13.4269 22.0823 12.4357 23.4535 11.94C23.3515 11.6071 23.1459 11.3153 22.8666 11.1073C22.5872 10.8993 22.2488 10.7859 21.9006 10.7836V7.47952C23.1727 7.47952 24.3291 7.95862 25.2047 8.7516V10.7836C25.9481 10.7836 26.5428 11.2792 26.7576 11.94C24.9238 12.5678 23.437 14.1703 22.611 16.2684ZM21.9006 22.3479C21.9006 21.0759 22.2806 19.8699 22.8918 18.8952L20.6781 17.6396C19.4225 18.1187 18.5965 19.3082 18.5965 20.6959V22.3479C18.5965 33.9949 26.6915 38.538 30.2104 39.9588C25.882 36.5886 21.9006 30.9386 21.9006 22.3479ZM16.0028 16.2684L13.4091 14.7816C14.2681 13.4269 15.4741 12.4357 16.8453 11.94C16.7433 11.6071 16.5377 11.3153 16.2584 11.1073C15.9791 10.8993 15.6406 10.7859 15.2924 10.7836V7.47952C16.5645 7.47952 17.7209 7.95862 18.5965 8.7516V10.7836C19.3399 10.7836 19.9346 11.2792 20.1494 11.94C18.3156 12.5678 16.8288 14.1703 16.0028 16.2684ZM15.2924 22.3479C15.2924 21.0759 15.6724 19.8699 16.2836 18.8952L14.0699 17.6396C12.8143 18.1187 11.9883 19.3082 11.9883 20.6959V22.3479C11.9883 33.9949 20.0833 38.538 23.6022 39.9588C19.2738 36.5886 15.2924 30.9386 15.2924 22.3479ZM36.769 17.8544L34.7039 19.0439L31.8129 17.3918L28.9218 19.0439L26.8567 17.8544C25.8655 18.4326 25.2047 19.4899 25.2047 20.6959V22.3479C25.2047 37.2164 38.4211 40.5205 38.4211 40.5205V20.6959C38.4211 19.4899 37.7602 18.4326 36.769 17.8544ZM26.4107 15.1285L28.9218 16.5658L31.8129 14.9137L34.7039 16.5658L37.2151 15.1285C36.3064 13.526 34.9683 12.3365 33.4153 11.8574C33.2754 10.6535 32.6985 9.54282 31.7942 8.7359C30.8898 7.92898 29.7208 7.48193 28.5088 7.47952V10.7836C29.2357 10.7836 29.8304 11.2627 30.0617 11.9235C28.5583 12.4357 27.2863 13.5921 26.4107 15.1285Z" fill="white"/>
</svg>
