<svg width="50" height="50" viewBox="0 0 50 50" fill="none" xmlns="http://www.w3.org/2000/svg">
<path d="M41.5205 39.5223L10.4934 8.47952L8.47952 10.4777L13.4986 15.4968L12.2871 16.1733C11.7836 16.4408 11.4532 16.96 11.4532 17.5579V31.7183C11.4532 32.3162 11.7836 32.8354 12.2871 33.1029L24.7168 40.0887C24.9685 40.2775 25.2832 40.3719 25.6136 40.3719C25.944 40.3719 26.2587 40.2775 26.5104 40.0887L33.921 35.9192L39.5223 41.5205L41.5205 39.5223ZM14.6 30.79V20.2484L22.9231 24.9213L24.0402 26.0384V36.108L14.6 30.79ZM27.187 36.108V29.1852L31.6239 33.6064L27.187 36.108ZM20.8935 14.9146L18.6278 12.6175L24.7168 9.18754C24.9685 8.99874 25.2832 8.90433 25.6136 8.90433C25.944 8.90433 26.2587 8.99874 26.5104 9.18754L38.9401 16.1733C39.4436 16.4408 39.774 16.96 39.774 17.5579V31.7183C39.774 32.269 39.4908 32.7567 39.0345 33.0242L36.6273 30.6169V20.2484L29.9876 23.9773L27.6747 21.6644L34.9909 17.5579L25.6136 12.2871L20.8935 14.9146Z" fill="white"/>
</svg>
